<?xml version="1.0" encoding="UTF-8" standalone="no"?>
<svg
   xmlns:dc="http://purl.org/dc/elements/1.1/"
   xmlns:cc="http://creativecommons.org/ns#"
   xmlns:rdf="http://www.w3.org/1999/02/22-rdf-syntax-ns#"
   xmlns:svg="http://www.w3.org/2000/svg"
   xmlns="http://www.w3.org/2000/svg"
   xmlns:sodipodi="http://sodipodi.sourceforge.net/DTD/sodipodi-0.dtd"
   xmlns:inkscape="http://www.inkscape.org/namespaces/inkscape"
   version="1"
   viewBox="0 0 48 48"
   enable-background="new 0 0 48 48"
   id="svg3722"
   inkscape:version="0.91 r13725"
   sodipodi:docname="add_audio_file.svg">
  <metadata
     id="metadata3750">
    <rdf:RDF>
      <cc:Work
         rdf:about="">
        <dc:format>image/svg+xml</dc:format>
        <dc:type
           rdf:resource="http://purl.org/dc/dcmitype/StillImage" />
        <dc:title></dc:title>
      </cc:Work>
    </rdf:RDF>
  </metadata>
  <defs
     id="defs3748" />
  <sodipodi:namedview
     pagecolor="#ffffff"
     bordercolor="#666666"
     borderopacity="1"
     objecttolerance="10"
     gridtolerance="10"
     guidetolerance="10"
     inkscape:pageopacity="0"
     inkscape:pageshadow="2"
     inkscape:window-width="1319"
     inkscape:window-height="744"
     id="namedview3746"
     showgrid="false"
     inkscape:zoom="4.9166667"
     inkscape:cx="24"
     inkscape:cy="24"
     inkscape:window-x="47"
     inkscape:window-y="24"
     inkscape:window-maximized="1"
     inkscape:current-layer="svg3722" />
  <rect
     x="204"
     fill="none"
     width="48"
     height="48"
     id="rect3724" />
  <polygon
     fill="#90CAF9"
     points="244,45 212,45 212,3 234,3 244,13"
     id="polygon3726" />
  <polygon
     fill="#E1F5FE"
     points="242.5,14 233,14 233,4.5"
     id="polygon3728" />
  <g
     fill="#1976D2"
     id="g3730">
    <circle
       cx="227"
       cy="30"
       r="4"
       id="circle3732" />
    <polygon
       points="234,21 229,19 229,30 231,30 231,22.9 234,24"
       id="polygon3734" />
  </g>
  <polygon
     fill="#90CAF9"
     points="40,45 8,45 8,3 30,3 40,13"
     id="polygon3736" />
  <polygon
     fill="#E1F5FE"
     points="38.5,14 29,14 29,4.5"
     id="polygon3738" />
  <g
     fill="#1976D2"
     id="g3740">
    <circle
       cx="23"
       cy="30"
       r="4"
       id="circle3742" />
    <polygon
       points="30,21 25,19 25,30 27,30 27,22.9 30,24"
       id="polygon3744" />
  </g>
  <circle
     style="fill:#43a047"
     cx="37.830509"
     cy="38.033897"
     r="10"
     id="circle3582" />
  <g
     transform="translate(-0.16949153,0.03389831)"
     style="fill:#ffffff"
     id="g3584">
    <rect
       x="32"
       y="36"
       width="12"
       height="4"
       id="rect3586" />
    <rect
       x="36"
       y="32"
       width="4"
       height="12"
       id="rect3588" />
  </g>
</svg>
