<?xml version="1.0" standalone="no"?>
<!DOCTYPE svg PUBLIC "-//W3C//DTD SVG 20010904//EN"
 "http://www.w3.org/TR/2001/REC-SVG-20010904/DTD/svg10.dtd">
<svg version="1.0" xmlns="http://www.w3.org/2000/svg"
 width="200.000000pt" height="200.000000pt" viewBox="0 0 200.000000 200.000000"
 preserveAspectRatio="xMidYMid meet">
<metadata>
Created by potrace 1.13, written by Peter Selinger 2001-2015
</metadata>
<g transform="translate(0.000000,200.000000) scale(0.100000,-0.100000)"
fill="#000000" stroke="none">
<path d="M1505 1921 c-75 -34 -115 -106 -102 -184 3 -18 42 -108 88 -202 l82
-170 83 170 c46 94 86 184 89 201 8 39 -9 103 -37 139 -26 33 -91 65 -133 65
-16 0 -48 -9 -70 -19z m130 -84 c18 -15 28 -36 32 -64 5 -37 2 -45 -25 -73
-40 -39 -88 -41 -131 -4 -25 21 -31 33 -31 66 0 82 94 128 155 75z"/>
<path d="M1423 1330 c-101 -50 -197 -135 -229 -205 -30 -63 -31 -130 -3 -232
28 -101 24 -237 -9 -299 -47 -91 -145 -153 -277 -175 l-72 -12 -78 -164 c-43
-90 -76 -165 -74 -167 8 -8 162 15 244 35 99 25 244 95 308 148 137 114 197
244 197 424 0 97 -16 170 -61 283 -54 138 -37 197 90 316 74 68 87 88 57 88
-6 0 -48 -18 -93 -40z"/>
<path d="M540 1190 c-137 -24 -238 -120 -276 -258 -30 -110 -19 -147 167 -529
90 -183 166 -330 170 -326 18 19 319 654 330 697 39 156 -56 339 -205 394 -65
25 -129 32 -186 22z m139 -170 c109 -55 140 -183 69 -280 -106 -147 -338 -72
-338 109 0 54 23 113 57 143 53 48 148 61 212 28z"/>
</g>
</svg>
