<?xml version="1.0" standalone="no"?>
<!DOCTYPE svg PUBLIC "-//W3C//DTD SVG 20010904//EN"
 "http://www.w3.org/TR/2001/REC-SVG-20010904/DTD/svg10.dtd">
<svg version="1.0" xmlns="http://www.w3.org/2000/svg"
 width="225.000000pt" height="225.000000pt" viewBox="0 0 225.000000 225.000000"
 preserveAspectRatio="xMidYMid meet">
<metadata>
Created by potrace 1.13, written by Peter Selinger 2001-2015
</metadata>
<g transform="translate(0.000000,225.000000) scale(0.100000,-0.100000)"
fill="#000000" stroke="none">
<path d="M1040 2244 c-406 -44 -729 -257 -906 -597 -90 -174 -127 -325 -127
-522 0 -297 104 -559 306 -772 335 -352 855 -448 1294 -238 325 155 544 437
619 797 23 111 23 315 0 426 -95 455 -432 794 -881 886 -74 15 -246 27 -305
20z m160 -415 c86 -14 139 -38 195 -90 60 -56 90 -108 111 -194 30 -127 3
-254 -105 -510 -55 -129 -281 -575 -292 -575 -12 0 -227 431 -292 585 -93 218
-110 284 -110 405 0 85 4 116 22 161 65 167 252 254 471 218z"/>
<path d="M1009 1617 c-114 -61 -145 -219 -62 -318 66 -78 183 -96 270 -43 66
41 107 118 100 190 -6 60 -24 98 -64 138 -60 61 -164 75 -244 33z"/>
</g>
</svg>
